<svg width="443" height="413" viewBox="0 0 443 413" fill="none" xmlns="http://www.w3.org/2000/svg">
<g clip-path="url(#clip0)">
<path d="M226.773 408.62C224.62 408.62 222.444 408.586 220.309 408.519L220.357 406.967C223.423 407.062 226.553 407.089 229.633 407.046L229.654 408.6C228.696 408.613 227.735 408.619 226.773 408.62ZM238.995 408.259L238.904 406.709C241.974 406.527 245.085 406.272 248.148 405.952L248.31 407.496C245.223 407.82 242.09 408.077 238.995 408.259V408.259ZM210.977 408.017C207.88 407.78 204.751 407.469 201.676 407.091L201.865 405.55C204.917 405.924 208.022 406.233 211.095 406.468L210.977 408.017ZM257.58 406.309L257.347 404.773C260.398 404.31 263.473 403.772 266.483 403.173L266.785 404.697C263.752 405.3 260.654 405.842 257.58 406.309ZM192.429 405.741C189.37 405.222 186.282 404.625 183.251 403.967L183.581 402.448C186.588 403.102 189.652 403.694 192.688 404.208L192.429 405.741ZM275.909 402.663L275.536 401.155C278.531 400.414 281.542 399.594 284.487 398.72L284.928 400.21C281.961 401.091 278.926 401.916 275.909 402.663ZM174.166 401.772C171.165 400.973 168.146 400.095 165.191 399.159L165.659 397.679C168.591 398.606 171.588 399.478 174.565 400.27L174.166 401.772ZM293.825 397.343L293.316 395.876C296.222 394.865 299.145 393.772 302.005 392.626L302.581 394.069C299.7 395.223 296.754 396.325 293.825 397.343L293.825 397.343ZM156.323 396.126C153.409 395.054 150.477 393.898 147.608 392.688L148.211 391.256C151.057 392.456 153.967 393.604 156.859 394.668L156.323 396.126ZM311.157 390.403L310.514 388.988C313.305 387.719 316.111 386.364 318.852 384.962L319.559 386.345C316.796 387.759 313.969 389.123 311.157 390.403ZM139.063 388.853C136.262 387.518 133.45 386.097 130.707 384.629L131.439 383.259C134.161 384.715 136.951 386.125 139.731 387.451L139.063 388.853ZM327.767 381.905L326.998 380.556C329.675 379.028 332.347 377.421 334.938 375.78L335.768 377.092C333.156 378.746 330.465 380.366 327.767 381.905ZM122.556 380.027C119.891 378.44 117.223 376.768 114.626 375.055L115.48 373.758C118.057 375.457 120.705 377.117 123.349 378.691L122.556 380.027ZM343.542 371.917L342.653 370.644C345.174 368.882 347.689 367.036 350.129 365.159L351.075 366.391C348.617 368.282 346.082 370.142 343.542 371.917ZM106.933 369.729C104.428 367.908 101.925 366 99.4935 364.057L100.462 362.843C102.875 364.771 105.359 366.664 107.845 368.471L106.933 369.729ZM358.35 360.527L357.349 359.339C359.698 357.355 362.036 355.288 364.299 353.194L365.352 354.335C363.073 356.445 360.717 358.528 358.35 360.527ZM92.3212 358.052C89.9876 356.007 87.6692 353.88 85.4308 351.729L86.5056 350.608C88.7274 352.742 91.028 354.854 93.3437 356.884L92.3212 358.052ZM372.068 347.828L370.962 346.737C373.128 344.541 375.27 342.268 377.328 339.982L378.482 341.021C376.408 343.325 374.25 345.615 372.068 347.828V347.828ZM78.8368 345.1C76.6958 342.847 74.5813 340.518 72.5521 338.178L73.7247 337.16C75.7384 339.482 77.8366 341.793 79.9617 344.029L78.8368 345.1ZM384.58 333.929L383.381 332.943C385.337 330.56 387.264 328.101 389.108 325.633L390.351 326.563C388.493 329.05 386.552 331.529 384.58 333.929ZM66.5899 330.979C64.6672 328.548 62.774 326.038 60.9628 323.518L62.2226 322.611C64.0202 325.111 65.899 327.602 67.8073 330.016L66.5899 330.979ZM395.78 318.941L394.496 318.068C396.227 315.517 397.923 312.891 399.535 310.263L400.859 311.076C399.233 313.724 397.524 316.37 395.78 318.941ZM55.6831 315.81C53.9916 313.215 52.3361 310.545 50.7621 307.871L52.0992 307.082C53.6615 309.735 55.3045 312.386 56.9832 314.961L55.6831 315.81ZM405.572 302.984L404.214 302.233C405.704 299.534 407.152 296.762 408.518 293.994L409.91 294.682C408.533 297.471 407.074 300.264 405.572 302.984ZM46.2099 299.717C44.762 296.979 43.3582 294.169 42.0373 291.366L43.4412 290.703C44.7522 293.485 46.1451 296.273 47.5819 298.991L46.2099 299.717ZM413.862 286.188L412.44 285.564C413.677 282.737 414.865 279.841 415.971 276.958L417.42 277.515C416.306 280.421 415.108 283.338 413.862 286.188V286.188ZM38.2529 282.835C37.0628 279.977 35.9231 277.052 34.8657 274.142L36.3249 273.611C37.374 276.499 38.5049 279.401 39.6855 282.238L38.2529 282.835ZM420.575 268.685L419.102 268.196C420.07 265.275 420.985 262.289 421.818 259.32L423.313 259.74C422.473 262.732 421.551 265.741 420.575 268.685L420.575 268.685ZM31.8753 265.28C30.9517 262.319 30.0837 259.294 29.2958 256.289L30.7974 255.894C31.5793 258.877 32.4407 261.879 33.3572 264.817L31.8753 265.28ZM425.635 250.679L424.123 250.327C424.818 247.333 425.453 244.275 426.012 241.239L427.538 241.52C426.976 244.58 426.336 247.661 425.635 250.679L425.635 250.679ZM27.1338 247.188C26.4865 244.153 25.9006 241.062 25.3927 237.998L26.9239 237.743C27.4283 240.784 28.0097 243.852 28.6521 246.863L27.1338 247.188ZM429.018 232.285L427.479 232.074C427.897 229.032 428.249 225.929 428.528 222.852L430.074 222.991C429.794 226.093 429.438 229.219 429.018 232.285L429.018 232.285ZM24.0745 228.738C23.7084 225.662 23.4078 222.53 23.1808 219.428L24.7294 219.314C24.9542 222.393 25.2528 225.502 25.6163 228.554L24.0745 228.738ZM430.706 213.66L429.155 213.59C429.293 210.512 429.364 207.389 429.364 204.31H430.916C430.916 207.413 430.846 210.559 430.706 213.66L430.706 213.66ZM22.7105 210.085C22.6574 208.18 22.6305 206.237 22.6301 204.31C22.6301 203.114 22.6404 201.921 22.6608 200.73L24.2132 200.757C24.1928 201.939 24.1825 203.123 24.1825 204.31C24.1829 206.222 24.2098 208.152 24.2621 210.043L22.7105 210.085ZM429.352 202.142C429.32 199.062 429.217 195.94 429.047 192.862L430.596 192.776C430.768 195.877 430.872 199.023 430.905 202.126L429.352 202.142ZM24.5817 191.482L23.0324 191.385C23.226 188.28 23.4936 185.145 23.8268 182.065L25.3701 182.232C25.0392 185.289 24.7743 188.401 24.5817 191.482ZM428.321 183.609C428.011 180.546 427.625 177.447 427.175 174.397L428.71 174.17C429.164 177.243 429.552 180.365 429.866 183.452L428.321 183.609ZM26.5787 173.029L25.0445 172.792C25.5201 169.718 26.0727 166.62 26.6871 163.583L28.2084 163.891C27.599 166.905 27.0506 169.98 26.5787 173.029ZM425.608 165.249C425.016 162.218 424.348 159.167 423.622 156.181L425.13 155.814C425.862 158.823 426.535 161.897 427.131 164.951L425.608 165.249ZM30.2559 154.838L28.7501 154.46C29.5039 151.451 30.3389 148.417 31.2318 145.442L32.7183 145.888C31.8325 148.841 31.004 151.852 30.2559 154.838ZM421.22 147.215C420.355 144.256 419.409 141.28 418.409 138.369L419.876 137.864C420.885 140.798 421.838 143.797 422.711 146.778L421.22 147.215ZM35.6 137.038L34.1355 136.523C35.1671 133.586 36.281 130.634 37.4461 127.751L38.8856 128.334C37.7292 131.195 36.6236 134.123 35.5999 137.038H35.6ZM415.192 129.662C414.059 126.803 412.847 123.933 411.587 121.133L413.003 120.495C414.272 123.317 415.494 126.208 416.635 129.089L415.192 129.662ZM42.5676 119.794L41.1569 119.145C42.4535 116.319 43.8334 113.486 45.2585 110.723L46.6381 111.435C45.2237 114.177 43.8543 116.989 42.5676 119.794ZM407.594 112.775C406.205 110.032 404.733 107.283 403.219 104.606L404.57 103.841C406.096 106.539 407.578 109.308 408.978 112.072L407.594 112.775ZM51.088 103.274L49.7425 102.499C51.2912 99.8077 52.9243 97.1138 54.5969 94.4927L55.9053 95.3288C54.2456 97.9301 52.6246 100.604 51.0881 103.274H51.088ZM398.474 96.6438C396.833 94.0303 395.116 91.4267 393.369 88.905L394.643 88.0197C396.404 90.5607 398.136 93.1841 399.788 95.8177L398.474 96.6438ZM61.0802 87.6141L59.8113 86.7189C61.601 84.1787 63.4721 81.6467 65.374 79.1933L66.6005 80.1454C64.7134 82.5806 62.8559 85.0932 61.0802 87.6141ZM387.914 81.4054C386.043 78.9532 384.095 76.5153 382.122 74.1597L383.312 73.1618C385.299 75.5355 387.263 77.9916 389.148 80.4625L387.914 81.4054ZM72.4543 72.9387L71.2725 71.9312C73.2809 69.5704 75.3742 67.2205 77.494 64.9468L78.6287 66.0066C76.5252 68.2632 74.4479 70.5956 72.4543 72.9387ZM376.006 67.1837C373.921 64.912 371.758 62.6603 369.577 60.4921L370.672 59.3898C372.869 61.5751 375.048 63.8434 377.149 66.1322L376.006 67.1837ZM85.1101 59.3656L84.0246 58.2549C86.2445 56.0814 88.5416 53.9326 90.8517 51.8684L91.8856 53.0275C89.593 55.0759 87.3133 57.2084 85.1101 59.3656H85.1101ZM362.852 54.0987C360.566 52.0242 358.206 49.9782 355.838 48.0175L356.828 46.8204C359.214 48.7959 361.592 50.8575 363.895 52.9479L362.852 54.0987ZM98.9409 47.0047L97.9608 45.8C100.362 43.8431 102.843 41.9131 105.336 40.0636L106.261 41.3116C103.787 43.1475 101.324 45.0626 98.9409 47.0047ZM348.555 42.2606C346.09 40.4023 343.552 38.5789 341.015 36.8413L341.891 35.5592C344.448 37.3097 347.004 39.1468 349.489 41.0195L348.555 42.2606ZM113.83 35.9601L112.964 34.6712C115.534 32.9407 118.179 31.2463 120.827 29.6339L121.634 30.9615C119.006 32.5614 116.381 34.2433 113.83 35.9601ZM333.233 31.7721C330.609 30.1471 327.915 28.5631 325.226 27.0632L325.981 25.706C328.692 27.2172 331.406 28.8138 334.05 30.4506L333.233 31.7721ZM129.655 26.3262L128.91 24.9629C131.629 23.4741 134.416 22.0297 137.195 20.6691L137.878 22.0649C135.12 23.4149 132.354 24.8484 129.655 26.3262L129.655 26.3262ZM317.009 22.7265C314.247 21.3492 311.417 20.0185 308.599 18.7717L309.226 17.3508C312.067 18.6071 314.918 19.948 317.702 21.3359L317.009 22.7265ZM146.283 18.1864L145.666 16.7609C148.507 15.5285 151.413 14.3466 154.304 13.2477L154.855 14.7005C151.986 15.7906 149.103 16.9635 146.283 18.1864L146.283 18.1864ZM300.013 15.2076C297.138 14.0921 294.197 13.0277 291.268 12.0445L291.763 10.5713C294.713 11.5624 297.677 12.6347 300.574 13.7594L300.013 15.2076ZM163.599 11.6056L163.116 10.1293C166.066 9.16132 169.076 8.2498 172.062 7.42099L172.477 8.91778C169.514 9.7405 166.527 10.6448 163.599 11.6056L163.599 11.6056ZM282.409 9.29558C279.448 8.45084 276.428 7.66413 273.433 6.95747L273.789 5.4455C276.808 6.15748 279.85 6.95026 282.835 7.80108L282.409 9.29558ZM181.469 6.64225L181.124 5.12764C184.148 4.43612 187.229 3.80609 190.28 3.25532L190.556 4.78397C187.528 5.33093 184.471 5.95604 181.469 6.64223V6.64225ZM264.359 5.03659C261.336 4.46876 258.257 3.96353 255.206 3.53487L255.422 1.99637C258.495 2.42841 261.599 2.93745 264.645 3.50946L264.359 5.03659ZM199.72 3.34598L199.514 1.80594C202.587 1.39552 205.712 1.05034 208.803 0.781045L208.938 2.32866C205.871 2.59643 202.77 2.93858 199.72 3.34596L199.72 3.34598ZM245.994 2.45458C242.936 2.1663 239.824 1.94402 236.743 1.79494L236.818 0.242793C239.923 0.393351 243.058 0.617196 246.14 0.907725L245.994 2.45458ZM218.195 1.73273L218.13 0.180585C220.983 0.0614715 223.891 0.000782587 226.773 2.28882e-05L227.476 0.00112941L227.471 1.55483L226.773 1.55368C223.912 1.55444 221.026 1.61475 218.195 1.73271V1.73273Z" fill="#E6E6E6"/>
<path d="M227.261 407.559V322.601C227.263 321.41 227.736 320.269 228.577 319.428C229.417 318.586 230.557 318.113 231.747 318.111H241.932C243.121 318.113 244.261 318.586 245.102 319.428C245.943 320.269 246.416 321.41 246.417 322.601V407.559C246.416 408.749 245.943 409.89 245.102 410.732C244.261 411.573 243.121 412.047 241.932 412.048H231.747C230.558 412.047 229.417 411.573 228.577 410.732C227.736 409.89 227.263 408.749 227.261 407.559Z" fill="#2F2E41"/>
<path d="M207.116 407.559V322.601C207.118 321.41 207.591 320.269 208.432 319.428C209.273 318.586 210.413 318.113 211.602 318.111H221.787C222.976 318.113 224.117 318.586 224.957 319.428C225.798 320.269 226.271 321.41 226.273 322.601V407.559C226.271 408.749 225.798 409.89 224.957 410.732C224.117 411.573 222.976 412.047 221.787 412.048H211.602C210.413 412.047 209.273 411.573 208.432 410.732C207.591 409.89 207.118 408.749 207.116 407.559Z" fill="#2F2E41"/>
<path d="M247.386 294.552H206.148C203.861 294.552 202.007 296.407 202.007 298.696V345.318C202.007 347.606 203.861 349.462 206.148 349.462H247.386C249.673 349.462 251.527 347.606 251.527 345.318V298.696C251.527 296.407 249.673 294.552 247.386 294.552Z" fill="#2F2E41"/>
<path d="M157.439 161.074C157.439 161.074 136.627 170.75 119.016 177.167C108.087 152.476 92.3426 153.4 92.3426 153.4L82.7973 159.978L84.5186 169.844L84.0491 185.975L81.5454 194.432L85.1382 195.082L87.1678 195.45L87.4737 195.173C86.9673 197.181 86.7624 199.254 86.8658 201.323L177.156 187.228C177.156 187.228 174.026 172.663 157.439 161.074Z" fill="#E6E6E6"/>
<path d="M130.777 288.068L136.831 296.266C138.19 298.106 140.783 298.495 142.621 297.135L210.889 246.64C212.728 245.28 213.117 242.685 211.758 240.845L205.705 232.647C204.345 230.807 201.753 230.417 199.914 231.778L131.646 282.273C129.807 283.633 129.418 286.227 130.777 288.068Z" fill="#6C63FF"/>
<path d="M247.103 229.863L238.106 234.641C236.086 235.714 235.318 238.222 236.39 240.244L276.182 315.289C277.254 317.311 279.761 318.08 281.781 317.007L290.777 312.229C292.797 311.156 293.566 308.647 292.494 306.626L252.701 231.58C251.629 229.559 249.123 228.79 247.103 229.863Z" fill="#6C63FF"/>
<path d="M272.324 263.169L257.631 272.917C255.385 274.11 252.696 273.438 251.624 271.416L235.397 240.813C234.325 238.792 235.276 236.186 237.522 234.994L247.523 229.682C249.768 228.489 252.457 229.161 253.529 231.183L274.449 257.349C275.521 259.37 274.569 261.976 272.324 263.169Z" fill="#CCCCCC"/>
<path d="M172.195 254.204L181.745 266.897C182.497 267.698 183.535 268.168 184.633 268.203C185.73 268.238 186.797 267.835 187.597 267.082L212.838 243.372C213.638 242.62 214.108 241.58 214.143 240.482C214.177 239.383 213.775 238.316 213.023 237.515L206.053 230.082C205.301 229.281 204.262 228.811 203.165 228.777C202.067 228.742 201.001 229.145 200.2 229.897L172.38 248.347C171.579 249.099 171.11 250.138 171.075 251.237C171.041 252.335 171.443 253.403 172.195 254.204Z" fill="#CCCCCC"/>
<path d="M249.906 228.641H203.628C201.341 228.641 199.488 230.497 199.488 232.785V331.184C199.488 333.473 201.341 335.328 203.628 335.328H249.906C252.192 335.328 254.046 333.473 254.046 331.184V232.785C254.046 230.497 252.192 228.641 249.906 228.641Z" fill="#CCCCCC"/>
<path d="M226.496 222.22C246.893 222.22 263.428 205.671 263.428 185.258C263.428 164.844 246.893 148.295 226.496 148.295C206.099 148.295 189.564 164.844 189.564 185.258C189.564 205.671 206.099 222.22 226.496 222.22Z" fill="#6C63FF"/>
<path d="M230.801 197.599C228.519 197.535 225.679 197.455 223.494 195.857C222.842 195.361 222.307 194.729 221.926 194.004C221.544 193.279 221.326 192.48 221.286 191.662C221.246 191.081 221.341 190.498 221.564 189.96C221.787 189.422 222.131 188.943 222.569 188.56C223.711 187.594 225.38 187.366 227.177 187.896L225.315 174.272L226.683 174.085L228.872 190.101L227.73 189.577C226.407 188.968 224.59 188.659 223.46 189.614C223.183 189.864 222.967 190.174 222.829 190.521C222.691 190.868 222.635 191.242 222.665 191.614C222.698 192.222 222.862 192.817 223.146 193.357C223.429 193.896 223.826 194.368 224.308 194.741C226.008 195.985 228.273 196.146 230.84 196.217L230.801 197.599Z" fill="#2F2E41"/>
<path d="M218.553 175.447H211.12V176.828H218.553V175.447Z" fill="#2F2E41"/>
<path d="M242.015 175.447H234.582V176.828H242.015V175.447Z" fill="#2F2E41"/>
<path d="M202.099 156.373C196.113 155.69 191.477 149.95 190.968 144.126C190.362 137.198 194.394 130.617 199.925 126.729C205.709 122.663 212.916 120.965 219.889 120.592C233.491 119.914 246.859 124.324 257.393 132.963C262.618 137.306 267.497 142.839 269.347 149.521C270.953 155.324 269.646 161.899 264.982 165.963C263.828 166.959 262.481 167.705 261.025 168.154C259.569 168.602 258.035 168.744 256.522 168.57C252.903 168.194 249.564 166.29 246.674 164.187C241.052 160.096 236.437 154.397 229.588 152.259C224.566 150.691 218.048 152.071 214.979 156.616C214.283 157.657 213.832 158.842 213.66 160.082C213.596 160.347 213.636 160.626 213.77 160.862C213.904 161.099 214.123 161.276 214.382 161.357C214.647 161.428 214.929 161.392 215.168 161.257C215.406 161.121 215.581 160.897 215.656 160.633C216.462 154.908 223.495 152.772 228.431 154.079C235.627 155.986 240.458 162.413 246.362 166.496C249.467 168.643 252.998 170.36 256.805 170.668C260.087 170.925 263.345 169.924 265.916 167.866C270.96 163.88 272.889 157.024 271.774 150.851C270.482 143.702 265.675 137.576 260.4 132.833C249.707 123.318 235.824 118.186 221.519 118.458C214.222 118.625 206.609 120.133 200.323 123.992C194.226 127.736 189.513 134 188.897 141.28C188.355 147.689 191.79 154.392 197.688 157.199C199.078 157.858 200.569 158.279 202.099 158.445C203.42 158.596 203.409 156.523 202.099 156.373H202.099Z" fill="#2F2E41"/>
<path d="M87.1006 194.197L91.4821 192.787C91.9516 191.887 91.0925 192.465 91.5025 191.589C102.588 167.921 92.3428 153.4 92.3428 153.4L84.4174 158.861C84.398 158.817 84.382 158.77 84.3622 158.725C84.3622 158.725 82.9539 155.593 80.7632 157.942C80.7632 157.942 87.6483 174.699 79.9807 195.528L88.9002 199.6L92.3427 195.528L92.421 195.137L86.2599 194.576L87.1006 194.197Z" fill="#CCCCCC"/>
<path d="M212.051 282.133C176.843 274.303 144.06 290.512 144.06 290.512L143.971 290.432L130.915 278.766L79.9023 195.45L92.3426 195.528C126.925 174.856 175.591 177.675 175.591 177.675C196.559 201.479 212.051 282.133 212.051 282.133Z" fill="#3F3D56"/>
<path opacity="0.1" d="M143.971 290.432L130.915 278.766L79.9023 195.45L92.3426 195.528C92.3426 195.528 141.925 261.068 143.971 290.432Z" fill="black"/>
<path d="M149.7 225.424C160.359 222.152 167.314 214.003 165.236 207.223C163.158 200.442 152.833 197.597 142.175 200.869C131.517 204.141 124.561 212.29 126.639 219.071C128.717 225.851 139.042 228.696 149.7 225.424Z" fill="#6C63FF"/>
<path d="M40.7221 155.053C37.9108 165.454 28.2818 171.895 28.2818 171.895C28.2818 171.895 23.2106 161.474 26.0218 151.073C28.833 140.673 38.4621 134.231 38.4621 134.231C38.4621 134.231 43.5333 144.653 40.7221 155.053Z" fill="#CCCCCC"/>
<path d="M15.1478 155.053C17.959 165.454 27.588 171.895 27.588 171.895C27.588 171.895 32.6593 161.474 29.8481 151.073C27.0368 140.673 17.4077 134.231 17.4077 134.231C17.4077 134.231 12.3366 144.653 15.1478 155.053Z" fill="#CCCCCC"/>
<path d="M19.2788 152.818C26.9928 160.333 27.935 171.886 27.935 171.886C27.935 171.886 16.3703 171.254 8.65626 163.739C0.942207 156.223 0 144.67 0 144.67C0 144.67 11.5647 145.302 19.2788 152.818Z" fill="#3F3D56"/>
<path d="M36.5913 152.818C28.8773 160.333 27.9351 171.886 27.9351 171.886C27.9351 171.886 39.4998 171.254 47.2138 163.739C54.9279 156.223 55.8701 144.67 55.8701 144.67C55.8701 144.67 44.3054 145.302 36.5913 152.818Z" fill="#3F3D56"/>
<path d="M427.852 272.461C425.041 282.862 415.412 289.303 415.412 289.303C415.412 289.303 410.341 278.882 413.152 268.481C415.963 258.081 425.592 251.639 425.592 251.639C425.592 251.639 430.663 262.061 427.852 272.461Z" fill="#CCCCCC"/>
<path d="M402.278 272.461C405.089 282.862 414.718 289.303 414.718 289.303C414.718 289.303 419.789 278.882 416.978 268.481C414.167 258.081 404.538 251.639 404.538 251.639C404.538 251.639 399.466 262.061 402.278 272.461Z" fill="#CCCCCC"/>
<path d="M406.409 270.226C414.123 277.741 415.065 289.294 415.065 289.294C415.065 289.294 403.5 288.662 395.786 281.147C388.072 273.631 387.13 262.078 387.13 262.078C387.13 262.078 398.695 262.71 406.409 270.226Z" fill="#3F3D56"/>
<path d="M423.721 270.226C416.007 277.741 415.065 289.294 415.065 289.294C415.065 289.294 426.63 288.662 434.344 281.147C442.058 273.631 443 262.078 443 262.078C443 262.078 431.435 262.71 423.721 270.226Z" fill="#3F3D56"/>
<path d="M307.746 411.619H147.65V413H307.746V411.619Z" fill="#3F3D56"/>
</g>
<defs>
<clipPath id="clip0">
<rect width="443" height="413" fill="white"/>
</clipPath>
</defs>
</svg>
