<svg width="336" height="288" viewBox="0 0 336 288" fill="none" xmlns="http://www.w3.org/2000/svg">
<path d="M258.169 200.646C257.465 200.645 256.788 200.376 256.275 199.895C255.761 199.413 255.45 198.755 255.404 198.053L254.992 191.767C254.944 191.033 255.189 190.31 255.675 189.757C256.16 189.204 256.846 188.866 257.58 188.818L306.856 185.593C307.634 185.541 308.413 185.643 309.151 185.893C309.888 186.143 310.57 186.535 311.155 187.048C311.741 187.561 312.22 188.185 312.564 188.883C312.909 189.581 313.112 190.34 313.163 191.116C313.214 191.893 313.111 192.672 312.861 193.409C312.61 194.146 312.217 194.826 311.703 195.411C311.189 195.996 310.565 196.474 309.867 196.818C309.168 197.162 308.408 197.365 307.631 197.415L258.355 200.64C258.293 200.644 258.231 200.646 258.169 200.646Z" fill="#6C63FF"/>
<path d="M267.886 201.456C267.168 201.455 266.478 201.176 265.962 200.678C265.445 200.181 265.141 199.502 265.113 198.785L264.762 189.397C264.748 189.033 264.807 188.67 264.933 188.328C265.06 187.987 265.253 187.673 265.501 187.406C265.749 187.139 266.047 186.924 266.379 186.772C266.71 186.62 267.068 186.535 267.432 186.521L307.953 185.008C308.689 184.98 309.406 185.246 309.945 185.747C310.485 186.247 310.803 186.941 310.831 187.676L311.182 197.065C311.196 197.429 311.137 197.792 311.011 198.134C310.884 198.475 310.691 198.788 310.443 199.055C310.195 199.322 309.897 199.538 309.565 199.69C309.234 199.842 308.876 199.927 308.512 199.941L267.991 201.454C267.956 201.456 267.921 201.456 267.886 201.456Z" fill="#2F2E41"/>
<path d="M315.37 288H309.067C308.331 287.999 307.626 287.707 307.105 287.187C306.585 286.667 306.292 285.961 306.291 285.226V232.725C306.292 231.99 306.585 231.285 307.105 230.765C307.626 230.245 308.331 229.952 309.067 229.951H315.37C316.106 229.952 316.812 230.245 317.332 230.765C317.853 231.285 318.145 231.99 318.146 232.725V285.226C318.145 285.961 317.853 286.667 317.332 287.187C316.812 287.707 316.106 287.999 315.37 288Z" fill="#2F2E41"/>
<path d="M300.314 288H294.01C293.274 287.999 292.569 287.707 292.049 287.187C291.528 286.667 291.235 285.961 291.235 285.226V232.725C291.235 231.99 291.528 231.285 292.049 230.765C292.569 230.245 293.274 229.952 294.01 229.951H300.314C301.05 229.952 301.755 230.245 302.275 230.765C302.796 231.285 303.089 231.99 303.089 232.725V285.226C303.089 285.961 302.796 286.667 302.275 287.187C301.755 287.707 301.05 287.999 300.314 288Z" fill="#2F2E41"/>
<path d="M305.797 175.161C317.826 175.161 327.577 165.416 327.577 153.395C327.577 141.374 317.826 131.629 305.797 131.629C293.769 131.629 284.018 141.374 284.018 153.395C284.018 165.416 293.769 175.161 305.797 175.161Z" fill="#6C63FF"/>
<path d="M294.008 160.827C293.307 160.597 292.664 160.219 292.122 159.72C291.762 159.364 291.485 158.933 291.31 158.458C291.134 157.984 291.065 157.476 291.106 156.972C291.129 156.613 291.235 156.264 291.415 155.952C291.595 155.64 291.845 155.374 292.145 155.175C292.924 154.676 293.966 154.674 295.026 155.141L294.986 146.644L295.84 146.64L295.887 156.629L295.229 156.216C294.466 155.737 293.376 155.4 292.606 155.893C292.416 156.024 292.258 156.196 292.146 156.398C292.033 156.599 291.968 156.823 291.957 157.054C291.928 157.429 291.98 157.807 292.111 158.161C292.241 158.514 292.446 158.835 292.712 159.103C293.655 160.003 295.031 160.285 296.6 160.536L296.464 161.379C295.631 161.269 294.809 161.084 294.008 160.827Z" fill="#2F2E41"/>
<path d="M286.182 146.216L286.071 147.062L290.631 147.664L290.743 146.818L286.182 146.216Z" fill="#2F2E41"/>
<path d="M300.577 148.114L300.465 148.96L305.025 149.562L305.137 148.716L300.577 148.114Z" fill="#2F2E41"/>
<path d="M319.999 246.811H287.257C286.446 246.81 285.658 246.538 285.02 246.039C284.381 245.539 283.928 244.841 283.732 244.054C283.635 243.623 283.619 243.177 283.685 242.74C283.685 242.74 290.08 206.847 293.244 189.609C293.705 187.096 295.034 184.824 296.998 183.189C298.961 181.554 301.437 180.659 303.993 180.66H303.993C310.257 180.66 316.265 183.147 320.695 187.573C325.124 192 327.613 198.004 327.613 204.265V239.202C327.613 240.201 327.416 241.191 327.033 242.114C326.651 243.037 326.09 243.876 325.383 244.583C324.676 245.289 323.836 245.85 322.913 246.232C321.989 246.614 320.999 246.811 319.999 246.811Z" fill="#2F2E41"/>
<path d="M313.685 242.069C313.445 242.548 313.072 242.948 312.611 243.22C312.149 243.492 311.619 243.625 311.084 243.603L304.786 243.338C304.422 243.323 304.064 243.236 303.734 243.082C303.403 242.929 303.106 242.712 302.859 242.444C302.613 242.175 302.421 241.861 302.296 241.519C302.171 241.177 302.114 240.814 302.13 240.45L304.208 191.142C304.241 190.365 304.426 189.602 304.754 188.896C305.082 188.191 305.546 187.557 306.119 187.03C306.692 186.504 307.363 186.096 308.094 185.828C308.825 185.561 309.602 185.441 310.379 185.473C311.157 185.506 311.921 185.691 312.627 186.019C313.333 186.347 313.967 186.81 314.494 187.383C315.021 187.956 315.429 188.626 315.697 189.357C315.964 190.088 316.085 190.864 316.052 191.641L313.974 240.948C313.958 241.338 313.859 241.72 313.685 242.069Z" fill="#6C63FF"/>
<path d="M316.908 228.995C316.669 229.474 316.296 229.874 315.834 230.146C315.373 230.418 314.843 230.551 314.307 230.529L303.551 230.076C302.815 230.045 302.123 229.723 301.625 229.181C301.127 228.64 300.864 227.923 300.894 227.188L302.601 186.7C302.616 186.336 302.703 185.978 302.857 185.648C303.01 185.317 303.227 185.02 303.496 184.774C303.764 184.527 304.078 184.336 304.421 184.211C304.763 184.086 305.127 184.029 305.491 184.045L316.247 184.498C316.612 184.513 316.969 184.6 317.3 184.753C317.63 184.907 317.928 185.124 318.174 185.392C318.421 185.66 318.612 185.974 318.737 186.316C318.863 186.659 318.919 187.022 318.904 187.386L317.197 227.874C317.181 228.264 317.083 228.646 316.908 228.995Z" fill="#2F2E41"/>
<path d="M304.587 139.257C299.889 141.108 292.79 143.076 289.693 137.58C289.089 136.456 288.731 135.217 288.643 133.944C288.555 132.672 288.739 131.395 289.183 130.199C290.119 127.606 292.109 125.47 294.376 123.96C298.624 121.132 303.999 120.362 308.946 121.455C311.433 121.996 313.794 123.01 315.898 124.441C318.291 126.081 319.976 128.294 321.67 130.61C323.401 132.978 325.362 135.366 328.207 136.403C330.533 137.251 333.45 136.818 335.096 134.845C335.48 134.384 335.775 133.855 335.965 133.286C336.212 132.561 335.065 132.25 334.819 132.971C333.954 135.511 330.771 136.08 328.523 135.258C325.556 134.172 323.681 131.352 321.902 128.918C320.2 126.591 318.319 124.542 315.862 122.998C313.653 121.621 311.207 120.666 308.649 120.184C303.498 119.205 297.951 120.072 293.587 123.062C291.181 124.637 289.297 126.888 288.171 129.531C287.171 132.033 287.197 134.827 288.242 137.31C288.767 138.547 289.586 139.638 290.628 140.487C291.671 141.336 292.905 141.918 294.224 142.182C297.102 142.765 300.092 142.094 302.824 141.17C303.523 140.933 304.215 140.673 304.903 140.402C305.606 140.125 305.3 138.976 304.587 139.257V139.257Z" fill="#2F2E41"/>
<path d="M19.0685 0H168.176C173.232 0.00568898 178.079 2.01527 181.653 5.58786C185.228 9.16045 187.239 14.0043 187.245 19.0567V100.58C187.239 105.632 185.228 110.476 181.653 114.049C178.079 117.621 173.232 119.631 168.176 119.637H19.0685C14.0129 119.631 9.16609 117.621 5.59129 114.049C2.01649 110.476 0.00568095 105.632 0 100.58V19.0567C0.0056799 14.0043 2.01649 9.16045 5.59129 5.58786C9.16609 2.01527 14.0129 0.00568898 19.0685 0Z" fill="#F2F2F2"/>
<path d="M19.0682 5.48596H168.176C171.776 5.48999 175.228 6.92106 177.774 9.46518C180.319 12.0093 181.751 15.4587 181.755 19.0566V100.58C181.751 104.178 180.319 107.627 177.774 110.171C175.228 112.715 171.776 114.146 168.176 114.15H19.0682C15.4681 114.146 12.0165 112.715 9.47088 110.171C6.92522 107.627 5.49329 104.178 5.48926 100.58V19.0566C5.49329 15.4587 6.92521 12.0093 9.47088 9.46523C12.0165 6.92111 15.468 5.49003 19.0682 5.48596Z" fill="white"/>
<path d="M20.5233 148.825C20.0733 148.823 19.6281 148.733 19.213 148.56C18.5935 148.311 18.0635 147.881 17.6926 147.326C17.3216 146.771 17.1269 146.118 17.134 145.45V117.268L54.7291 116.004L22.8833 147.83C22.5754 148.144 22.2082 148.393 21.8031 148.564C21.398 148.735 20.9629 148.823 20.5233 148.825Z" fill="#F2F2F2"/>
<path d="M149.501 25.7638H37.3798C32.8908 25.7638 29.2517 29.4006 29.2517 33.8869V33.8869C29.2517 38.3731 32.8908 42.01 37.3798 42.01H149.501C153.99 42.01 157.629 38.3731 157.629 33.8869C157.629 29.4006 153.99 25.7638 149.501 25.7638Z" fill="#F2F2F2"/>
<path d="M149.683 51.6952H37.5615C33.0724 51.6952 29.4333 55.332 29.4333 59.8183V59.8183C29.4333 64.3045 33.0724 67.9414 37.5615 67.9414H149.683C154.172 67.9414 157.811 64.3045 157.811 59.8183C157.811 55.332 154.172 51.6952 149.683 51.6952Z" fill="#F2F2F2"/>
<path d="M149.865 77.6266H37.7431C33.2541 77.6266 29.615 81.2634 29.615 85.7497V85.7497C29.615 90.2359 33.2541 93.8727 37.7431 93.8727H149.865C154.354 93.8727 157.993 90.2359 157.993 85.7497C157.993 81.2634 154.354 77.6266 149.865 77.6266Z" fill="#F2F2F2"/>
<path d="M254.521 41.5781H105.413C100.358 41.5838 95.5108 43.5934 91.936 47.166C88.3612 50.7386 86.3504 55.5824 86.3447 60.6348V142.158C86.3504 147.21 88.3612 152.054 91.936 155.627C95.5108 159.199 100.358 161.209 105.413 161.215H254.521C259.576 161.209 264.423 159.199 267.998 155.627C271.573 152.054 273.584 147.21 273.589 142.158V60.6348C273.584 55.5824 271.573 50.7386 267.998 47.166C264.423 43.5934 259.576 41.5838 254.521 41.5781Z" fill="#E6E6E6"/>
<path d="M254.521 47.0641H105.413C101.813 47.0681 98.3614 48.4992 95.8157 51.0433C93.27 53.5874 91.838 57.0368 91.834 60.6348V142.158C91.838 145.756 93.27 149.205 95.8157 151.749C98.3614 154.293 101.813 155.725 105.413 155.729H254.521C258.121 155.724 261.573 154.293 264.118 151.749C266.664 149.205 268.096 145.756 268.1 142.158V60.6348C268.096 57.0369 266.664 53.5875 264.118 51.0434C261.573 48.4992 258.121 47.0682 254.521 47.0641Z" fill="white"/>
<path d="M243.178 189.408L211.332 157.582L248.927 158.846V187.028C248.934 187.696 248.739 188.349 248.369 188.904C247.998 189.459 247.468 189.889 246.848 190.138C246.433 190.311 245.988 190.401 245.538 190.403C245.098 190.401 244.663 190.313 244.258 190.142C243.853 189.971 243.486 189.722 243.178 189.408Z" fill="#E6E6E6"/>
<path d="M147.08 111.692C152.77 111.692 157.382 107.082 157.382 101.396C157.382 95.7103 152.77 91.1008 147.08 91.1008C141.391 91.1008 136.778 95.7103 136.778 101.396C136.778 107.082 141.391 111.692 147.08 111.692Z" fill="#6C63FF"/>
<path d="M179.967 111.692C185.657 111.692 190.269 107.082 190.269 101.396C190.269 95.7103 185.657 91.1008 179.967 91.1008C174.277 91.1008 169.665 95.7103 169.665 101.396C169.665 107.082 174.277 111.692 179.967 111.692Z" fill="#6C63FF"/>
<path d="M212.854 111.692C218.543 111.692 223.156 107.082 223.156 101.396C223.156 95.7103 218.543 91.1008 212.854 91.1008C207.164 91.1008 202.552 95.7103 202.552 101.396C202.552 107.082 207.164 111.692 212.854 111.692Z" fill="#6C63FF"/>
</svg>
