<svg width="1440" height="712" viewBox="0 0 1440 712" fill="none" xmlns="http://www.w3.org/2000/svg">
<path fill-rule="evenodd" clip-rule="evenodd" d="M1155.39 -172.572C1227.44 -185.825 1303.77 -192.053 1367.01 -142.758C1434.02 -90.5139 1477.93 2.52843 1506.34 101.011C1536.25 204.695 1550.63 317.47 1530.99 425.696C1510.42 539.03 1467.43 650.31 1395.41 712.218C1325.44 772.361 1235.44 776.041 1155.39 748.554C1085.84 724.672 1051 622.352 989.075 572.692C915.807 513.937 811.195 528.906 762.453 433.446C709.99 330.699 684.901 176.329 731.615 68.4625C778.77 -40.4209 896.108 -23.366 981.26 -71.798C1040.91 -105.727 1091.41 -160.802 1155.39 -172.572Z" fill="url(#paint0_linear)"/>
<path d="M97.9261 351.449C1.96869 397.453 -136 740.98 -136 740.98L1416.03 981L1480 663.474C1480 663.474 1374.49 382.451 1320.07 382.451C1265.65 382.451 1046.52 632.472 1046.52 632.472C1046.52 632.472 923.351 413.454 846.967 382.451C770.583 351.449 700.883 632.472 642.162 632.472C583.442 632.472 437.835 469.958 373.864 441.456C309.892 412.954 314.666 580.967 282.68 606.47C250.694 631.972 193.884 305.445 97.9261 351.449Z" fill="url(#paint1_linear)"/>
<defs>
<linearGradient id="paint0_linear" x1="909.871" y1="716.942" x2="1568.59" y2="-76.1298" gradientUnits="userSpaceOnUse">
<stop offset="0.376317" stop-color="#F9CCCC"/>
<stop offset="1" stop-color="#CE5AE1"/>
</linearGradient>
<linearGradient id="paint1_linear" x1="1303.84" y1="414.005" x2="1303.84" y2="770.5" gradientUnits="userSpaceOnUse">
<stop stop-color="#CE5AE1"/>
<stop offset="1" stop-color="#93E9EA"/>
</linearGradient>
</defs>
</svg>
