<svg width="99" height="99" viewBox="0 0 99 99" fill="none" xmlns="http://www.w3.org/2000/svg">
<path d="M42.0131 67.3277H29.0998C27.9629 67.3277 26.4299 68.9117 26.4299 70.2111V95.139C26.4299 96.4322 27.9629 96.9148 29.0998 96.9148H42.0131C43.1485 96.9148 43.4471 96.4306 43.4471 95.139V70.2204C43.4471 68.921 43.1485 67.3355 42.0131 67.3355" fill="#989897"/>
<path d="M69.2165 67.3277H56.3063C55.1693 67.3277 54.2752 68.9117 54.2752 70.2111V95.139C54.2752 96.4322 55.1678 96.9148 56.3063 96.9148H69.2165C70.3565 96.9148 71.2924 96.4306 71.2924 95.139V70.2204C71.2924 68.921 70.3565 67.3355 69.2165 67.3355" fill="#989897"/>
<path d="M51.4027 68.8854H38.4909C37.3508 68.8854 35.7127 70.3998 35.7127 71.6946V96.6194C35.7127 97.9172 37.3524 98.4679 38.4909 98.4679H51.4027C52.535 98.4679 52.7268 97.9172 52.7268 96.6194V71.6977C52.7268 70.4029 52.5365 68.8885 51.4027 68.8885" fill="#B3B2B3"/>
<path d="M82.2473 68.8854H69.3387C68.2017 68.8854 66.6471 70.3998 66.6471 71.6946V96.6194C66.6471 97.9172 68.2094 98.4679 69.3387 98.4679H82.2473C83.3858 98.4679 83.6627 97.9172 83.6627 96.6194V71.6977C83.6627 70.4029 83.3858 68.8885 82.2473 68.8885" fill="#B3B2B3"/>
<path d="M97.1747 56.5182C97.3139 55.1059 97.4593 53.7771 97.597 52.4746C98.8979 50.0244 99.1439 47.0327 98.174 44.6784C98.1802 41.4562 97.7084 38.7245 96.1553 36.4815C95.7825 33.2439 93.6741 30.475 89.5146 30.475C88.554 30.475 87.6923 30.6637 86.8818 30.936C84.5305 30.2754 81.7694 29.7217 78.4018 29.3164C77.7135 26.5722 75.6267 24.4004 71.9436 24.4004C68.7029 24.4004 66.347 26.1082 64.9626 28.4068C64.6717 28.3975 64.3577 28.3944 64.07 28.3882C63.0939 26.3077 61.1418 24.8072 58.0805 24.8072C56.4365 24.7998 54.8318 25.3102 53.494 26.2659C51.9642 25.3858 50.1095 24.8335 47.8448 24.8335C44.4556 24.8335 41.7084 26.0339 39.5567 27.8577C37.4499 28.529 35.8705 30.0032 34.8851 31.8177C23.5373 36.053 15.9854 44.1726 15.9854 56.5104C15.9854 60.0296 16.6088 63.3105 17.7489 66.3331C15.7426 70.341 16.5562 75.6917 20.7343 77.285C21.9672 81.426 25.245 84.645 30.9066 84.645C32.4864 84.6398 34.0519 84.3451 35.5255 83.7757C41.6697 86.4703 48.8596 87.9584 56.5785 87.9584C73.9963 87.9584 87.4603 84.1469 93.6664 70.2158C98.3055 67.8413 99.7131 61.1836 97.0386 57.5004C97.0788 57.1632 97.1453 56.8477 97.1731 56.5104" fill="#E5E5E5"/>
<path d="M97.1747 56.5182C97.3139 55.1059 97.4593 53.7771 97.597 52.4746C98.8979 50.0244 99.1438 47.0327 98.1739 44.6784C98.1801 41.4562 97.7083 38.7245 96.1553 36.4815C95.7825 33.2439 93.6741 30.475 89.5145 30.475C89.4078 30.475 89.3134 30.4997 89.2098 30.5059C100.573 43.6776 95.4685 65.3183 73.6018 69.5181C62.7582 71.6048 61.0644 81.6812 50.9772 81.6812C42.1183 81.6812 32.175 69.3387 29.8964 71.8477C26.4469 75.653 20.5115 70.454 17.0713 68.177C16.0766 71.8384 17.1734 75.9268 20.7374 77.2881C21.9702 81.429 25.2481 84.6481 30.9096 84.6481C32.4895 84.6428 34.055 84.3482 35.5286 83.7787C41.6728 86.4734 48.8627 87.9615 56.5816 87.9615C73.9994 87.9615 87.4634 84.15 93.6694 70.2188C98.3085 67.8444 99.7162 61.1866 97.0416 57.5035C97.0803 57.1648 97.1468 56.8492 97.1747 56.512" fill="#CCCECD"/>
<path d="M45.5678 42.7324C45.2662 37.5581 35.9385 33.9555 24.7392 34.6639C13.5305 35.3724 4.64835 46.8688 4.94535 52.0415C5.25782 57.2019 15.1099 66.0098 26.3201 65.2967C37.521 64.5789 45.8741 47.8974 45.5678 42.7324Z" fill="#CCCECD"/>
<path d="M37.8969 45.9035C42.1044 41.0046 40.2327 32.1688 33.728 26.1561C27.2142 20.1434 18.5377 19.2369 14.3271 24.1374C10.1289 29.0364 5.03042 45.9793 11.5474 51.9967C18.0567 58.0109 33.694 50.804 37.8907 45.902" fill="#E5E5E5"/>
<path d="M35.5487 42.7185C35.2564 37.7376 27.1152 34.2107 17.3699 34.831C7.61681 35.4497 -0.0464107 46.4712 0.245949 51.4552C0.546042 56.4285 9.16987 64.9626 18.9322 64.3423C28.6806 63.7173 35.8535 47.701 35.558 42.7185" fill="#E5E5E5"/>
<path d="M55.1275 32.1162C52.8041 28.1361 49.5928 26.1963 46.0335 25.5435C44.6459 25.098 43.1748 24.7376 41.6063 24.7051C14.3272 24.1374 26.6155 39.6155 30.6699 39.4298C36.1041 39.1792 41.8693 34.684 46.0892 40.3332C49.3608 44.7202 45.704 50.3864 42.0905 52.832C40.7617 53.7291 43.2212 53.9101 43.7688 53.723C52.7856 50.6292 61.0969 42.338 55.1306 32.1162" fill="#F4AE80"/>
<path d="M22.4436 42.6195C23.0221 45.8339 21.4459 48.8379 18.943 49.3391C16.4232 49.8388 13.9265 47.6438 13.3464 44.4309C12.7741 41.2149 14.3473 38.2125 16.8594 37.7035C19.3684 37.207 21.8728 39.4035 22.4436 42.6195Z" fill="#25333A"/>
</svg>
