<svg width="1440" height="712" viewBox="0 0 1440 712" fill="none" xmlns="http://www.w3.org/2000/svg">
<path fill-rule="evenodd" clip-rule="evenodd" d="M1155.39 -172.572C1227.44 -185.825 1303.77 -192.053 1367.01 -142.758C1434.02 -90.5139 1477.93 2.52843 1506.34 101.011C1536.25 204.695 1550.63 317.47 1530.99 425.696C1510.42 539.03 1467.43 650.31 1395.41 712.218C1325.44 772.361 1235.44 776.041 1155.39 748.554C1085.84 724.672 1051 622.352 989.075 572.692C915.807 513.937 811.195 528.906 762.453 433.446C709.99 330.699 684.901 176.329 731.615 68.4625C778.77 -40.4209 896.108 -23.366 981.26 -71.798C1040.91 -105.727 1091.41 -160.802 1155.39 -172.572Z" fill="url(#paint0_linear)"/>
<path d="M97.9261 351.449C1.96869 397.453 -136 740.98 -136 740.98L1416.03 981L1480 663.474C1480 663.474 1374.49 382.451 1320.07 382.451C1265.65 382.451 1046.52 632.472 1046.52 632.472C1046.52 632.472 923.351 413.454 846.967 382.451C770.583 351.449 700.883 632.472 642.162 632.472C583.442 632.472 437.835 469.958 373.864 441.456C309.892 412.954 314.666 580.967 282.68 606.47C250.694 631.972 193.884 305.445 97.9261 351.449Z" fill="url(#paint1_linear)"/>
<path d="M1252.17 355.646C1251.47 355.645 1250.79 355.376 1250.27 354.895C1249.76 354.413 1249.45 353.755 1249.4 353.053L1248.99 346.767C1248.94 346.033 1249.19 345.31 1249.67 344.757C1250.16 344.204 1250.85 343.866 1251.58 343.818L1300.86 340.593C1301.63 340.541 1302.41 340.643 1303.15 340.893C1303.89 341.143 1304.57 341.535 1305.16 342.048C1305.74 342.561 1306.22 343.185 1306.56 343.883C1306.91 344.581 1307.11 345.34 1307.16 346.116C1307.21 346.893 1307.11 347.672 1306.86 348.409C1306.61 349.146 1306.22 349.826 1305.7 350.411C1305.19 350.996 1304.57 351.474 1303.87 351.818C1303.17 352.162 1302.41 352.365 1301.63 352.415L1252.36 355.64C1252.29 355.644 1252.23 355.646 1252.17 355.646Z" fill="#6C63FF"/>
<path d="M1261.89 356.456C1261.17 356.455 1260.48 356.176 1259.96 355.678C1259.44 355.181 1259.14 354.502 1259.11 353.785L1258.76 344.397C1258.75 344.033 1258.81 343.67 1258.93 343.328C1259.06 342.987 1259.25 342.673 1259.5 342.406C1259.75 342.139 1260.05 341.924 1260.38 341.772C1260.71 341.62 1261.07 341.535 1261.43 341.521L1301.95 340.008C1302.69 339.98 1303.41 340.246 1303.95 340.747C1304.48 341.247 1304.8 341.941 1304.83 342.676L1305.18 352.065C1305.2 352.429 1305.14 352.792 1305.01 353.134C1304.88 353.475 1304.69 353.788 1304.44 354.055C1304.19 354.322 1303.9 354.538 1303.57 354.69C1303.23 354.842 1302.88 354.927 1302.51 354.941L1261.99 356.454C1261.96 356.456 1261.92 356.456 1261.89 356.456Z" fill="#2F2E41"/>
<path d="M1309.37 443H1303.07C1302.33 442.999 1301.63 442.707 1301.11 442.187C1300.58 441.667 1300.29 440.961 1300.29 440.226V387.725C1300.29 386.99 1300.58 386.285 1301.11 385.765C1301.63 385.245 1302.33 384.952 1303.07 384.951H1309.37C1310.11 384.952 1310.81 385.245 1311.33 385.765C1311.85 386.285 1312.15 386.99 1312.15 387.725V440.226C1312.15 440.961 1311.85 441.667 1311.33 442.187C1310.81 442.707 1310.11 442.999 1309.37 443Z" fill="#2F2E41"/>
<path d="M1294.31 443H1288.01C1287.27 442.999 1286.57 442.707 1286.05 442.187C1285.53 441.667 1285.24 440.961 1285.23 440.226V387.725C1285.24 386.99 1285.53 386.285 1286.05 385.765C1286.57 385.245 1287.27 384.952 1288.01 384.951H1294.31C1295.05 384.952 1295.76 385.245 1296.28 385.765C1296.8 386.285 1297.09 386.99 1297.09 387.725V440.226C1297.09 440.961 1296.8 441.667 1296.28 442.187C1295.76 442.707 1295.05 442.999 1294.31 443Z" fill="#2F2E41"/>
<path d="M1299.8 330.161C1311.83 330.161 1321.58 320.416 1321.58 308.395C1321.58 296.374 1311.83 286.629 1299.8 286.629C1287.77 286.629 1278.02 296.374 1278.02 308.395C1278.02 320.416 1287.77 330.161 1299.8 330.161Z" fill="#6C63FF"/>
<path d="M1288.01 315.827C1287.31 315.597 1286.66 315.219 1286.12 314.72C1285.76 314.364 1285.49 313.933 1285.31 313.458C1285.13 312.984 1285.06 312.476 1285.11 311.972C1285.13 311.613 1285.23 311.264 1285.42 310.952C1285.6 310.64 1285.85 310.374 1286.15 310.175C1286.92 309.676 1287.97 309.674 1289.03 310.141L1288.99 301.644L1289.84 301.64L1289.89 311.629L1289.23 311.216C1288.47 310.737 1287.38 310.4 1286.61 310.893C1286.42 311.024 1286.26 311.196 1286.15 311.398C1286.03 311.599 1285.97 311.823 1285.96 312.054C1285.93 312.429 1285.98 312.807 1286.11 313.161C1286.24 313.514 1286.45 313.835 1286.71 314.103C1287.65 315.003 1289.03 315.285 1290.6 315.536L1290.46 316.379C1289.63 316.269 1288.81 316.084 1288.01 315.827Z" fill="#2F2E41"/>
<path d="M1280.18 301.216L1280.07 302.062L1284.63 302.664L1284.74 301.818L1280.18 301.216Z" fill="#2F2E41"/>
<path d="M1294.58 303.114L1294.46 303.96L1299.03 304.562L1299.14 303.716L1294.58 303.114Z" fill="#2F2E41"/>
<path d="M1314 401.811H1281.26C1280.45 401.81 1279.66 401.538 1279.02 401.039C1278.38 400.539 1277.93 399.841 1277.73 399.054C1277.64 398.623 1277.62 398.177 1277.68 397.74C1277.68 397.74 1284.08 361.847 1287.24 344.609C1287.71 342.096 1289.03 339.824 1291 338.189C1292.96 336.554 1295.44 335.659 1297.99 335.66H1297.99C1304.26 335.66 1310.27 338.147 1314.69 342.573C1319.12 347 1321.61 353.004 1321.61 359.265V394.202C1321.61 395.201 1321.42 396.191 1321.03 397.114C1320.65 398.037 1320.09 398.876 1319.38 399.583C1318.68 400.289 1317.84 400.85 1316.91 401.232C1315.99 401.614 1315 401.811 1314 401.811Z" fill="#2F2E41"/>
<path d="M1307.68 397.069C1307.45 397.548 1307.07 397.948 1306.61 398.22C1306.15 398.492 1305.62 398.625 1305.08 398.603L1298.79 398.338C1298.42 398.323 1298.06 398.236 1297.73 398.082C1297.4 397.929 1297.11 397.712 1296.86 397.444C1296.61 397.175 1296.42 396.861 1296.3 396.519C1296.17 396.177 1296.11 395.814 1296.13 395.45L1298.21 346.142C1298.24 345.365 1298.43 344.602 1298.75 343.896C1299.08 343.191 1299.55 342.557 1300.12 342.03C1300.69 341.504 1301.36 341.096 1302.09 340.828C1302.83 340.561 1303.6 340.441 1304.38 340.473C1305.16 340.506 1305.92 340.691 1306.63 341.019C1307.33 341.347 1307.97 341.81 1308.49 342.383C1309.02 342.956 1309.43 343.626 1309.7 344.357C1309.96 345.088 1310.08 345.864 1310.05 346.641L1307.97 395.948C1307.96 396.338 1307.86 396.72 1307.68 397.069Z" fill="#6C63FF"/>
<path d="M1310.91 383.995C1310.67 384.474 1310.3 384.874 1309.83 385.146C1309.37 385.418 1308.84 385.551 1308.31 385.529L1297.55 385.076C1296.82 385.045 1296.12 384.723 1295.62 384.181C1295.13 383.64 1294.86 382.923 1294.89 382.188L1296.6 341.7C1296.62 341.336 1296.7 340.978 1296.86 340.648C1297.01 340.317 1297.23 340.02 1297.5 339.774C1297.76 339.527 1298.08 339.336 1298.42 339.211C1298.76 339.086 1299.13 339.029 1299.49 339.045L1310.25 339.498C1310.61 339.513 1310.97 339.6 1311.3 339.753C1311.63 339.907 1311.93 340.124 1312.17 340.392C1312.42 340.66 1312.61 340.974 1312.74 341.316C1312.86 341.659 1312.92 342.022 1312.9 342.386L1311.2 382.874C1311.18 383.264 1311.08 383.646 1310.91 383.995Z" fill="#2F2E41"/>
<path d="M1298.59 294.257C1293.89 296.108 1286.79 298.076 1283.69 292.58C1283.09 291.456 1282.73 290.217 1282.64 288.944C1282.55 287.672 1282.74 286.395 1283.18 285.199C1284.12 282.606 1286.11 280.47 1288.38 278.96C1292.62 276.132 1298 275.362 1302.95 276.455C1305.43 276.996 1307.79 278.01 1309.9 279.441C1312.29 281.081 1313.98 283.294 1315.67 285.61C1317.4 287.978 1319.36 290.366 1322.21 291.403C1324.53 292.251 1327.45 291.818 1329.1 289.845C1329.48 289.384 1329.78 288.855 1329.97 288.286C1330.21 287.561 1329.06 287.25 1328.82 287.971C1327.95 290.511 1324.77 291.08 1322.52 290.258C1319.56 289.172 1317.68 286.352 1315.9 283.918C1314.2 281.591 1312.32 279.542 1309.86 277.998C1307.65 276.621 1305.21 275.666 1302.65 275.184C1297.5 274.205 1291.95 275.072 1287.59 278.062C1285.18 279.637 1283.3 281.888 1282.17 284.531C1281.17 287.033 1281.2 289.827 1282.24 292.31C1282.77 293.547 1283.59 294.638 1284.63 295.487C1285.67 296.336 1286.91 296.918 1288.22 297.182C1291.1 297.765 1294.09 297.094 1296.82 296.17C1297.52 295.933 1298.22 295.673 1298.9 295.402C1299.61 295.125 1299.3 293.976 1298.59 294.257V294.257Z" fill="#2F2E41"/>
<path d="M1013.07 155H1162.18C1167.23 155.006 1172.08 157.015 1175.65 160.588C1179.23 164.16 1181.24 169.004 1181.24 174.057V255.58C1181.24 260.632 1179.23 265.476 1175.65 269.049C1172.08 272.621 1167.23 274.631 1162.18 274.637H1013.07C1008.01 274.631 1003.17 272.621 999.591 269.049C996.016 265.476 994.006 260.632 994 255.58V174.057C994.006 169.004 996.016 164.16 999.591 160.588C1003.17 157.015 1008.01 155.006 1013.07 155Z" fill="#F2F2F2"/>
<path d="M1013.07 160.486H1162.18C1165.78 160.49 1169.23 161.921 1171.77 164.465C1174.32 167.009 1175.75 170.459 1175.76 174.057V255.58C1175.75 259.178 1174.32 262.627 1171.77 265.171C1169.23 267.715 1165.78 269.146 1162.18 269.15H1013.07C1009.47 269.146 1006.02 267.715 1003.47 265.171C1000.93 262.627 999.493 259.178 999.489 255.58V174.057C999.493 170.459 1000.93 167.009 1003.47 164.465C1006.02 161.921 1009.47 160.49 1013.07 160.486Z" fill="white"/>
<path d="M1014.52 303.825C1014.07 303.823 1013.63 303.733 1013.21 303.56C1012.59 303.311 1012.06 302.881 1011.69 302.326C1011.32 301.771 1011.13 301.118 1011.13 300.45V272.268L1048.73 271.004L1016.88 302.83C1016.58 303.144 1016.21 303.393 1015.8 303.564C1015.4 303.735 1014.96 303.823 1014.52 303.825Z" fill="#F2F2F2"/>
<path d="M1143.5 180.764H1031.38C1026.89 180.764 1023.25 184.401 1023.25 188.887V188.887C1023.25 193.373 1026.89 197.01 1031.38 197.01H1143.5C1147.99 197.01 1151.63 193.373 1151.63 188.887C1151.63 184.401 1147.99 180.764 1143.5 180.764Z" fill="#F2F2F2"/>
<path d="M1143.68 206.695H1031.56C1027.07 206.695 1023.43 210.332 1023.43 214.818V214.818C1023.43 219.305 1027.07 222.941 1031.56 222.941H1143.68C1148.17 222.941 1151.81 219.305 1151.81 214.818C1151.81 210.332 1148.17 206.695 1143.68 206.695Z" fill="#F2F2F2"/>
<path d="M1143.86 232.627H1031.74C1027.25 232.627 1023.61 236.263 1023.61 240.75V240.75C1023.61 245.236 1027.25 248.873 1031.74 248.873H1143.86C1148.35 248.873 1151.99 245.236 1151.99 240.75C1151.99 236.263 1148.35 232.627 1143.86 232.627Z" fill="#F2F2F2"/>
<path d="M1248.52 196.578H1099.41C1094.36 196.584 1089.51 198.593 1085.94 202.166C1082.36 205.739 1080.35 210.582 1080.34 215.635V297.158C1080.35 302.21 1082.36 307.054 1085.94 310.627C1089.51 314.199 1094.36 316.209 1099.41 316.215H1248.52C1253.58 316.209 1258.42 314.199 1262 310.627C1265.57 307.054 1267.58 302.21 1267.59 297.158V215.635C1267.58 210.582 1265.57 205.739 1262 202.166C1258.42 198.593 1253.58 196.584 1248.52 196.578Z" fill="#E6E6E6"/>
<path d="M1248.52 202.064H1099.41C1095.81 202.068 1092.36 203.499 1089.82 206.043C1087.27 208.587 1085.84 212.037 1085.83 215.635V297.158C1085.84 300.756 1087.27 304.205 1089.82 306.749C1092.36 309.293 1095.81 310.725 1099.41 310.729H1248.52C1252.12 310.724 1255.57 309.293 1258.12 306.749C1260.66 304.205 1262.1 300.756 1262.1 297.158V215.635C1262.1 212.037 1260.66 208.587 1258.12 206.043C1255.57 203.499 1252.12 202.068 1248.52 202.064Z" fill="white"/>
<path d="M1237.18 344.408L1205.33 312.582L1242.93 313.846V342.028C1242.93 342.696 1242.74 343.349 1242.37 343.904C1242 344.459 1241.47 344.889 1240.85 345.138C1240.43 345.311 1239.99 345.401 1239.54 345.403C1239.1 345.401 1238.66 345.313 1238.26 345.142C1237.85 344.971 1237.49 344.722 1237.18 344.408Z" fill="#E6E6E6"/>
<path d="M1141.08 266.692C1146.77 266.692 1151.38 262.082 1151.38 256.396C1151.38 250.71 1146.77 246.101 1141.08 246.101C1135.39 246.101 1130.78 250.71 1130.78 256.396C1130.78 262.082 1135.39 266.692 1141.08 266.692Z" fill="#6C63FF"/>
<path d="M1173.97 266.692C1179.66 266.692 1184.27 262.082 1184.27 256.396C1184.27 250.71 1179.66 246.101 1173.97 246.101C1168.28 246.101 1163.67 250.71 1163.67 256.396C1163.67 262.082 1168.28 266.692 1173.97 266.692Z" fill="#6C63FF"/>
<path d="M1206.85 266.692C1212.54 266.692 1217.16 262.082 1217.16 256.396C1217.16 250.71 1212.54 246.101 1206.85 246.101C1201.16 246.101 1196.55 250.71 1196.55 256.396C1196.55 262.082 1201.16 266.692 1206.85 266.692Z" fill="#6C63FF"/>
<defs>
<linearGradient id="paint0_linear" x1="909.871" y1="716.942" x2="1568.59" y2="-76.1298" gradientUnits="userSpaceOnUse">
<stop offset="0.376317" stop-color="#F9CCCC"/>
<stop offset="1" stop-color="#CE5AE1"/>
</linearGradient>
<linearGradient id="paint1_linear" x1="1303.84" y1="414.005" x2="1303.84" y2="770.5" gradientUnits="userSpaceOnUse">
<stop stop-color="#CE5AE1"/>
<stop offset="1" stop-color="#93E9EA"/>
</linearGradient>
</defs>
</svg>
