<svg width="1440" height="712" viewBox="0 0 1440 712" fill="none" xmlns="http://www.w3.org/2000/svg">
<path fill-rule="evenodd" clip-rule="evenodd" d="M1155.39 -172.572C1227.44 -185.825 1303.77 -192.053 1367.01 -142.758C1434.02 -90.5139 1477.93 2.52843 1506.34 101.011C1536.25 204.695 1550.63 317.47 1530.99 425.696C1510.42 539.03 1467.43 650.31 1395.41 712.218C1325.44 772.361 1235.44 776.041 1155.39 748.554C1085.84 724.672 1051 622.352 989.075 572.692C915.807 513.937 811.195 528.906 762.453 433.446C709.99 330.699 684.901 176.329 731.615 68.4625C778.77 -40.4209 896.108 -23.366 981.26 -71.798C1040.91 -105.727 1091.41 -160.802 1155.39 -172.572Z" fill="url(#paint0_linear)"/>
<path d="M97.9261 351.449C1.96869 397.453 -136 740.98 -136 740.98L1416.03 981L1480 663.474C1480 663.474 1374.49 382.451 1320.07 382.451C1265.65 382.451 1046.52 632.472 1046.52 632.472C1046.52 632.472 923.351 413.454 846.967 382.451C770.583 351.449 700.883 632.472 642.162 632.472C583.442 632.472 437.835 469.958 373.864 441.456C309.892 412.954 314.666 580.967 282.68 606.47C250.694 631.972 193.884 305.445 97.9261 351.449Z" fill="url(#paint1_linear)"/>
<path d="M797.169 342.646C796.465 342.645 795.788 342.376 795.275 341.895C794.761 341.413 794.45 340.755 794.404 340.053L793.992 333.767C793.944 333.033 794.189 332.31 794.675 331.757C795.16 331.204 795.846 330.866 796.58 330.818L845.856 327.593C846.634 327.541 847.413 327.643 848.151 327.893C848.888 328.143 849.57 328.535 850.155 329.048C850.741 329.561 851.22 330.185 851.564 330.883C851.909 331.581 852.112 332.34 852.163 333.116C852.214 333.893 852.111 334.672 851.861 335.409C851.61 336.146 851.217 336.826 850.703 337.411C850.189 337.996 849.565 338.474 848.867 338.818C848.168 339.162 847.408 339.365 846.631 339.415L797.355 342.64C797.293 342.644 797.231 342.646 797.169 342.646Z" fill="#6C63FF"/>
<path d="M806.886 343.456C806.168 343.455 805.478 343.176 804.962 342.678C804.445 342.181 804.141 341.502 804.113 340.785L803.762 331.397C803.748 331.033 803.807 330.67 803.933 330.328C804.06 329.987 804.253 329.673 804.501 329.406C804.749 329.139 805.047 328.924 805.379 328.772C805.71 328.62 806.068 328.535 806.432 328.521L846.953 327.008C847.689 326.98 848.406 327.246 848.945 327.747C849.485 328.247 849.803 328.941 849.831 329.676L850.182 339.065C850.196 339.429 850.137 339.792 850.011 340.134C849.884 340.475 849.691 340.788 849.443 341.055C849.195 341.322 848.897 341.538 848.565 341.69C848.234 341.842 847.876 341.927 847.512 341.941L806.991 343.454C806.956 343.456 806.921 343.456 806.886 343.456Z" fill="#2F2E41"/>
<path d="M854.37 430H848.067C847.331 429.999 846.626 429.707 846.105 429.187C845.585 428.667 845.292 427.961 845.291 427.226V374.725C845.292 373.99 845.585 373.285 846.105 372.765C846.626 372.245 847.331 371.952 848.067 371.951H854.37C855.106 371.952 855.812 372.245 856.332 372.765C856.853 373.285 857.145 373.99 857.146 374.725V427.226C857.145 427.961 856.853 428.667 856.332 429.187C855.812 429.707 855.106 429.999 854.37 430Z" fill="#2F2E41"/>
<path d="M839.314 430H833.01C832.274 429.999 831.569 429.707 831.049 429.187C830.528 428.667 830.235 427.961 830.235 427.226V374.725C830.235 373.99 830.528 373.285 831.049 372.765C831.569 372.245 832.274 371.952 833.01 371.951H839.314C840.05 371.952 840.755 372.245 841.275 372.765C841.796 373.285 842.089 373.99 842.089 374.725V427.226C842.089 427.961 841.796 428.667 841.275 429.187C840.755 429.707 840.05 429.999 839.314 430Z" fill="#2F2E41"/>
<path d="M844.797 317.161C856.826 317.161 866.577 307.416 866.577 295.395C866.577 283.374 856.826 273.629 844.797 273.629C832.769 273.629 823.018 283.374 823.018 295.395C823.018 307.416 832.769 317.161 844.797 317.161Z" fill="#6C63FF"/>
<path d="M833.008 302.827C832.307 302.597 831.664 302.219 831.122 301.72C830.762 301.364 830.485 300.933 830.31 300.458C830.134 299.984 830.065 299.476 830.106 298.972C830.129 298.613 830.235 298.264 830.415 297.952C830.595 297.64 830.845 297.374 831.145 297.175C831.924 296.676 832.966 296.674 834.026 297.141L833.986 288.644L834.84 288.64L834.887 298.629L834.229 298.216C833.466 297.737 832.376 297.4 831.606 297.893C831.416 298.024 831.258 298.196 831.146 298.398C831.033 298.599 830.968 298.823 830.957 299.054C830.928 299.429 830.98 299.807 831.111 300.161C831.241 300.514 831.446 300.835 831.712 301.103C832.655 302.003 834.031 302.285 835.6 302.536L835.464 303.379C834.631 303.269 833.809 303.084 833.008 302.827Z" fill="#2F2E41"/>
<path d="M825.182 288.216L825.071 289.062L829.631 289.664L829.743 288.818L825.182 288.216Z" fill="#2F2E41"/>
<path d="M839.577 290.114L839.465 290.96L844.025 291.562L844.137 290.716L839.577 290.114Z" fill="#2F2E41"/>
<path d="M858.999 388.811H826.257C825.446 388.81 824.658 388.538 824.02 388.039C823.381 387.539 822.928 386.841 822.732 386.054C822.635 385.623 822.619 385.177 822.685 384.74C822.685 384.74 829.08 348.847 832.244 331.609C832.705 329.096 834.034 326.824 835.998 325.189C837.961 323.554 840.437 322.659 842.993 322.66H842.993C849.257 322.66 855.265 325.147 859.695 329.573C864.124 334 866.613 340.004 866.613 346.265V381.202C866.613 382.201 866.416 383.191 866.033 384.114C865.651 385.037 865.09 385.876 864.383 386.583C863.676 387.289 862.836 387.85 861.913 388.232C860.989 388.614 859.999 388.811 858.999 388.811Z" fill="#2F2E41"/>
<path d="M852.685 384.069C852.445 384.548 852.072 384.948 851.611 385.22C851.149 385.492 850.619 385.625 850.084 385.603L843.786 385.338C843.422 385.323 843.064 385.236 842.734 385.082C842.403 384.929 842.106 384.712 841.859 384.444C841.613 384.175 841.421 383.861 841.296 383.519C841.171 383.177 841.114 382.814 841.13 382.45L843.208 333.142C843.241 332.365 843.426 331.602 843.754 330.896C844.082 330.191 844.546 329.557 845.119 329.03C845.692 328.504 846.363 328.096 847.094 327.828C847.825 327.561 848.602 327.441 849.379 327.473C850.157 327.506 850.921 327.691 851.627 328.019C852.333 328.347 852.967 328.81 853.494 329.383C854.021 329.956 854.429 330.626 854.697 331.357C854.964 332.088 855.085 332.864 855.052 333.641L852.974 382.948C852.958 383.338 852.859 383.72 852.685 384.069Z" fill="#6C63FF"/>
<path d="M855.908 370.995C855.669 371.474 855.296 371.874 854.834 372.146C854.373 372.418 853.843 372.551 853.307 372.529L842.551 372.076C841.815 372.045 841.123 371.723 840.625 371.181C840.127 370.64 839.864 369.923 839.894 369.188L841.601 328.7C841.616 328.336 841.703 327.978 841.857 327.648C842.01 327.317 842.227 327.02 842.496 326.774C842.764 326.527 843.078 326.336 843.421 326.211C843.763 326.086 844.127 326.029 844.491 326.045L855.247 326.498C855.612 326.513 855.969 326.6 856.3 326.753C856.63 326.907 856.928 327.124 857.174 327.392C857.421 327.66 857.612 327.974 857.737 328.316C857.863 328.659 857.919 329.022 857.904 329.386L856.197 369.874C856.181 370.264 856.083 370.646 855.908 370.995Z" fill="#2F2E41"/>
<path d="M843.587 281.257C838.889 283.108 831.79 285.076 828.693 279.58C828.089 278.456 827.731 277.217 827.643 275.944C827.555 274.672 827.739 273.395 828.183 272.199C829.119 269.606 831.109 267.47 833.376 265.96C837.624 263.132 842.999 262.362 847.946 263.455C850.433 263.996 852.794 265.01 854.898 266.441C857.291 268.081 858.976 270.294 860.67 272.61C862.401 274.978 864.362 277.366 867.207 278.403C869.533 279.251 872.45 278.818 874.096 276.845C874.48 276.384 874.775 275.855 874.965 275.286C875.212 274.561 874.065 274.25 873.819 274.971C872.954 277.511 869.771 278.08 867.523 277.258C864.556 276.172 862.681 273.352 860.902 270.918C859.2 268.591 857.319 266.542 854.862 264.998C852.653 263.621 850.207 262.666 847.649 262.184C842.498 261.205 836.951 262.072 832.587 265.062C830.181 266.637 828.297 268.888 827.171 271.531C826.171 274.033 826.197 276.827 827.242 279.31C827.767 280.547 828.586 281.638 829.628 282.487C830.671 283.336 831.905 283.918 833.224 284.182C836.102 284.765 839.092 284.094 841.824 283.17C842.523 282.933 843.215 282.673 843.903 282.402C844.606 282.125 844.3 280.976 843.587 281.257V281.257Z" fill="#2F2E41"/>
<path d="M558.068 142H707.176C712.232 142.006 717.079 144.015 720.653 147.588C724.228 151.16 726.239 156.004 726.245 161.057V242.58C726.239 247.632 724.228 252.476 720.653 256.049C717.079 259.621 712.232 261.631 707.176 261.637H558.068C553.013 261.631 548.166 259.621 544.591 256.049C541.016 252.476 539.006 247.632 539 242.58V161.057C539.006 156.004 541.016 151.16 544.591 147.588C548.166 144.015 553.013 142.006 558.068 142Z" fill="#F2F2F2"/>
<path d="M558.068 147.486H707.176C710.776 147.49 714.228 148.921 716.774 151.465C719.319 154.009 720.751 157.459 720.755 161.057V242.58C720.751 246.178 719.319 249.627 716.774 252.171C714.228 254.715 710.776 256.146 707.176 256.15H558.068C554.468 256.146 551.017 254.715 548.471 252.171C545.925 249.627 544.493 246.178 544.489 242.58V161.057C544.493 157.459 545.925 154.009 548.471 151.465C551.017 148.921 554.468 147.49 558.068 147.486Z" fill="white"/>
<path d="M559.523 290.825C559.073 290.823 558.628 290.733 558.213 290.56C557.593 290.311 557.064 289.881 556.693 289.326C556.322 288.771 556.127 288.118 556.134 287.45V259.268L593.729 258.004L561.883 289.83C561.575 290.144 561.208 290.393 560.803 290.564C560.398 290.735 559.963 290.823 559.523 290.825Z" fill="#F2F2F2"/>
<path d="M688.501 167.764H576.38C571.891 167.764 568.252 171.401 568.252 175.887V175.887C568.252 180.373 571.891 184.01 576.38 184.01H688.501C692.99 184.01 696.629 180.373 696.629 175.887C696.629 171.401 692.99 167.764 688.501 167.764Z" fill="#F2F2F2"/>
<path d="M688.683 193.695H576.561C572.072 193.695 568.433 197.332 568.433 201.818V201.818C568.433 206.305 572.072 209.941 576.561 209.941H688.683C693.172 209.941 696.811 206.305 696.811 201.818C696.811 197.332 693.172 193.695 688.683 193.695Z" fill="#F2F2F2"/>
<path d="M688.865 219.627H576.743C572.254 219.627 568.615 223.263 568.615 227.75V227.75C568.615 232.236 572.254 235.873 576.743 235.873H688.865C693.354 235.873 696.993 232.236 696.993 227.75C696.993 223.263 693.354 219.627 688.865 219.627Z" fill="#F2F2F2"/>
<path d="M793.521 183.578H644.413C639.358 183.584 634.511 185.593 630.936 189.166C627.361 192.739 625.35 197.582 625.345 202.635V284.158C625.35 289.21 627.361 294.054 630.936 297.627C634.511 301.199 639.358 303.209 644.413 303.215H793.521C798.576 303.209 803.423 301.199 806.998 297.627C810.573 294.054 812.584 289.21 812.589 284.158V202.635C812.584 197.582 810.573 192.739 806.998 189.166C803.423 185.593 798.576 183.584 793.521 183.578Z" fill="#E6E6E6"/>
<path d="M793.521 189.064H644.413C640.813 189.068 637.361 190.499 634.816 193.043C632.27 195.587 630.838 199.037 630.834 202.635V284.158C630.838 287.756 632.27 291.205 634.816 293.749C637.361 296.293 640.813 297.725 644.413 297.729H793.521C797.121 297.724 800.573 296.293 803.118 293.749C805.664 291.205 807.096 287.756 807.1 284.158V202.635C807.096 199.037 805.664 195.587 803.118 193.043C800.573 190.499 797.121 189.068 793.521 189.064Z" fill="white"/>
<path d="M782.178 331.408L750.332 299.582L787.927 300.846V329.028C787.934 329.696 787.739 330.349 787.369 330.904C786.998 331.459 786.468 331.889 785.848 332.138C785.433 332.311 784.988 332.401 784.538 332.403C784.098 332.401 783.663 332.313 783.258 332.142C782.853 331.971 782.486 331.722 782.178 331.408Z" fill="#E6E6E6"/>
<path d="M686.08 253.692C691.77 253.692 696.382 249.082 696.382 243.396C696.382 237.71 691.77 233.101 686.08 233.101C680.391 233.101 675.778 237.71 675.778 243.396C675.778 249.082 680.391 253.692 686.08 253.692Z" fill="#6C63FF"/>
<path d="M718.967 253.692C724.657 253.692 729.269 249.082 729.269 243.396C729.269 237.71 724.657 233.101 718.967 233.101C713.277 233.101 708.665 237.71 708.665 243.396C708.665 249.082 713.277 253.692 718.967 253.692Z" fill="#6C63FF"/>
<path d="M751.854 253.692C757.543 253.692 762.156 249.082 762.156 243.396C762.156 237.71 757.543 233.101 751.854 233.101C746.164 233.101 741.552 237.71 741.552 243.396C741.552 249.082 746.164 253.692 751.854 253.692Z" fill="#6C63FF"/>
<defs>
<linearGradient id="paint0_linear" x1="909.871" y1="716.942" x2="1568.59" y2="-76.1298" gradientUnits="userSpaceOnUse">
<stop offset="0.376317" stop-color="#F9CCCC"/>
<stop offset="1" stop-color="#CE5AE1"/>
</linearGradient>
<linearGradient id="paint1_linear" x1="1303.84" y1="414.005" x2="1303.84" y2="770.5" gradientUnits="userSpaceOnUse">
<stop stop-color="#CE5AE1"/>
<stop offset="1" stop-color="#93E9EA"/>
</linearGradient>
</defs>
</svg>
